<svg width="16" height="17" viewBox="0 0 16 17" fill="none" xmlns="http://www.w3.org/2000/svg">
<g clip-path="url(#clip0_1_3255)">
<path d="M15.9974 8.50003C15.9974 4.0817 12.4163 0.500031 7.99878 0.500031C3.58118 0.500031 0 4.0817 0 8.50003C0 12.9184 3.58118 16.5 7.99878 16.5C12.4163 16.5 15.9974 12.9184 15.9974 8.50003Z" fill="#F36986"/>
<path d="M10.7649 0.991486C12.8936 2.42899 14.2931 4.86417 14.2931 7.62625C14.2931 12.0446 10.7119 15.6263 6.29431 15.6263C5.32202 15.6263 4.39026 15.4527 3.52832 15.1348C4.80457 15.9967 6.34302 16.5 7.9989 16.5C12.4164 16.5 15.9976 12.9184 15.9976 8.50003C15.9976 5.05423 13.8193 2.11746 10.7649 0.991486V0.991486Z" fill="#FC476E"/>
<path d="M11.6165 6.01297L11.6108 6.00735C10.6963 5.0889 9.20935 5.08878 8.29468 6.00711L8.01941 6.28336L7.72852 5.99136C6.81226 5.07132 5.32288 5.07132 4.40662 5.99136C3.48816 6.91336 3.48816 8.40457 4.40662 9.32657L7.5918 12.5246C7.82776 12.7614 8.2113 12.7614 8.44714 12.5246L11.6165 9.34268C12.5322 8.42313 12.5322 6.9324 11.6165 6.01297V6.01297Z" fill="#FFD2E3"/>
<path d="M11.6165 6.01297L11.6108 6.00736C11.1062 5.50064 10.4274 5.27396 9.76648 5.32645C10.6222 6.24966 10.6028 7.69461 9.7074 8.59366L6.69189 11.6211L7.5918 12.5246C7.82776 12.7615 8.2113 12.7615 8.44714 12.5246L11.6165 9.34268C12.5322 8.42313 12.5322 6.9324 11.6165 6.01297V6.01297Z" fill="#FFBBD7"/>
</g>
<defs>
<clipPath id="clip0_1_3255">
<rect width="16" height="16" fill="white" transform="translate(0 0.500031)"/>
</clipPath>
</defs>
</svg>
