<svg width="16" height="17" viewBox="0 0 16 17" fill="none" xmlns="http://www.w3.org/2000/svg">
<path d="M8.0001 10.9646C9.3605 10.9646 10.4633 9.86181 10.4633 8.50141C10.4633 7.141 9.3605 6.03818 8.0001 6.03818C6.63969 6.03818 5.53687 7.141 5.53687 8.50141C5.53687 9.86181 6.63969 10.9646 8.0001 10.9646Z" fill="#FEB186"/>
<path d="M15.7546 7.81908C13.8612 5.53105 10.995 3.32861 8.00003 3.32861C5.00444 3.32861 2.13764 5.53259 0.245476 7.81908C-0.0818254 8.21443 -0.0818254 8.78836 0.245476 9.18371C0.721187 9.75857 1.71849 10.8683 3.05048 11.8378C6.40506 14.2799 9.58761 14.2853 12.9496 11.8378C14.2816 10.8683 15.2789 9.75857 15.7546 9.18371C16.0809 8.78913 16.0826 8.21572 15.7546 7.81908V7.81908ZM8.00003 5.05287C9.90164 5.05287 11.4486 6.59978 11.4486 8.5014C11.4486 10.403 9.90164 11.9499 8.00003 11.9499C6.09842 11.9499 4.55151 10.403 4.55151 8.5014C4.55151 6.59978 6.09842 5.05287 8.00003 5.05287Z" fill="#F58E54"/>
</svg>
