<svg width="18" height="18" viewBox="0 0 18 18" fill="none" xmlns="http://www.w3.org/2000/svg">
<path fill-rule="evenodd" clip-rule="evenodd" d="M9.25 0.5C4.425 0.5 0.5 4.425 0.5 9.25C0.5 14.075 4.425 18 9.25 18C14.075 18 18 14.075 18 9.25C18 4.425 14.075 0.5 9.25 0.5" fill="#8954C2"/>
<path fill-rule="evenodd" clip-rule="evenodd" d="M8.13376 7.08639C7.95676 8.08739 7.95376 10.4784 8.13076 11.4284C9.00876 11.1184 10.9108 9.86839 11.4228 9.24939C10.9128 8.64839 9.03476 7.42439 8.13376 7.08639V7.08639ZM7.82776 13.0014C7.55776 13.0014 7.30176 12.9244 7.09276 12.7164C6.93176 12.5574 6.50176 12.1324 6.49976 9.33339C6.49876 6.36139 6.94576 5.91939 7.09276 5.77239C7.61576 5.25439 8.46776 5.60939 8.83076 5.76139C9.35076 5.97839 12.9998 7.84739 12.9998 9.24539C12.9998 10.5554 9.71576 12.3874 8.87676 12.7374C8.54976 12.8734 8.17676 13.0014 7.82776 13.0014V13.0014Z" fill="white"/>
</svg>
