<svg width="21" height="22" viewBox="0 0 21 22" fill="none" xmlns="http://www.w3.org/2000/svg">
<path fill-rule="evenodd" clip-rule="evenodd" d="M16.2768 21.5053H14.3528C13.2508 21.4793 12.4008 20.6143 12.4008 19.5363V16.4603C12.4008 16.0913 12.0938 15.7913 11.7168 15.7913H8.83076C8.46176 15.7933 8.15676 16.0943 8.15676 16.4603V19.5263C8.15676 19.6013 8.14676 19.6733 8.12576 19.7413C8.01776 20.7313 7.17176 21.5053 6.14676 21.5053H4.22276C1.89376 21.5053 -0.000244141 19.6263 -0.000244141 17.3173V8.60331C0.00975586 7.60931 0.467756 6.69931 1.25876 6.10031L7.79376 0.855311C9.23276 -0.284689 11.2378 -0.284689 12.6738 0.853311L19.2558 6.10331C20.0288 6.69231 20.4868 7.60031 20.4998 8.58231V17.3173C20.4998 19.6263 18.6058 21.5053 16.2768 21.5053V21.5053Z" fill="#8954C2"/>
</svg>
