<svg width="25" height="25" viewBox="0 0 25 25" fill="none" xmlns="http://www.w3.org/2000/svg">
<g clip-path="url(#clip0_1_3016)">
<path d="M12.4999 6.05097C12.2998 6.05097 12.1377 5.88883 12.1377 5.68882V4.51371C12.1377 4.31364 12.2998 4.15155 12.4999 4.15155C12.6999 4.15155 12.862 4.31369 12.862 4.51371V5.68877C12.8621 5.88883 12.6999 6.05097 12.4999 6.05097Z" fill="#E8F9FC"/>
<path d="M11.7675 9.5745C11.9605 9.39581 12.2177 9.28593 12.4998 9.28593C12.782 9.28593 13.0393 9.39581 13.2322 9.5745C13.3026 9.63965 13.3888 9.68175 13.4796 9.69998V6.35981C13.4796 5.89293 13.1012 5.51447 12.6343 5.51447H12.3654C11.8985 5.51447 11.52 5.89293 11.52 6.35981V9.70012C11.6095 9.68231 11.6955 9.64111 11.7675 9.5745V9.5745Z" fill="#00D2FC"/>
<path d="M12.4998 6.35981C12.4998 6.02006 12.7007 5.72793 12.9897 5.59359C12.8816 5.54329 12.7615 5.51447 12.6343 5.51447H12.3654C11.8985 5.51447 11.52 5.89293 11.52 6.35981V9.70012C11.6095 9.68236 11.6955 9.64115 11.7674 9.57454C11.9604 9.39586 12.2177 9.28598 12.4998 9.28598V6.35981H12.4998Z" fill="#00C2FB"/>
<path d="M3.16553 14.8235H21.8341V19.3789H3.16553V14.8235Z" fill="#FFB640"/>
<path d="M3.16553 14.8235H6.05748V19.3789H3.16553V14.8235Z" fill="#FFA90F"/>
<path d="M4.49414 12.3447H20.4055V15.0074H4.49414V12.3447Z" fill="#FEE17D"/>
<path d="M4.49414 12.3447H6.05752V15.0074H4.49414V12.3447Z" fill="#FFCE65"/>
<path d="M3.16553 19.2534V21.7093C3.16553 22.1095 3.48995 22.4822 3.89012 22.4822H21.1095C21.5097 22.4822 21.8341 22.1095 21.8341 21.7093V19.2534H3.16553Z" fill="#FEE17D"/>
<path d="M6.05748 19.2534H3.16553V21.7093C3.16553 22.1095 3.48995 22.4822 3.89012 22.4822H6.05748V19.2534Z" fill="#FFCE65"/>
<path d="M23.0561 22.4339H1.94359C1.81267 22.4339 1.70654 22.54 1.70654 22.6709C1.70654 23.7013 2.54181 24.5366 3.57217 24.5366H21.4276C22.458 24.5366 23.2932 23.7013 23.2932 22.6709C23.2932 22.54 23.1871 22.4339 23.0561 22.4339Z" fill="#E8F9FC"/>
<path d="M5.52189 22.6709C5.52189 22.54 5.62801 22.4339 5.75893 22.4339H1.94364C1.81271 22.4339 1.70654 22.54 1.70654 22.6709C1.70654 23.7013 2.54181 24.5366 3.57217 24.5366H7.38746C6.35715 24.5366 5.52189 23.7013 5.52189 22.6709Z" fill="#D9E7EC"/>
<path d="M21.2787 9.19601C20.9497 9.15987 20.646 9.27415 20.4259 9.47797C20.2257 9.66331 19.9174 9.65506 19.7261 9.47797C19.5331 9.29928 19.2759 9.18941 18.9937 9.18941C18.7116 9.18941 18.4543 9.29928 18.2614 9.47797C18.0612 9.66331 17.7528 9.65511 17.5615 9.47797C17.3685 9.29928 17.1113 9.18941 16.8291 9.18941C16.547 9.18941 16.2897 9.29928 16.0968 9.47797C15.8966 9.66331 15.5882 9.65511 15.3969 9.47797C15.2039 9.29928 14.9467 9.18941 14.6645 9.18941C14.3824 9.18941 14.1251 9.29928 13.9322 9.47797C13.732 9.66331 13.4236 9.65511 13.2323 9.47797C13.0393 9.29928 12.7821 9.18941 12.4999 9.18941C12.2178 9.18941 11.9605 9.29928 11.7676 9.47797C11.5674 9.66331 11.259 9.65511 11.0677 9.47797C10.8747 9.29928 10.6175 9.18941 10.3354 9.18941C10.0532 9.18941 9.79592 9.29928 9.60298 9.47797C9.40278 9.66331 9.09443 9.65511 8.90314 9.47797C8.71015 9.29928 8.4529 9.18941 8.17076 9.18941C7.88862 9.18941 7.63132 9.29928 7.43839 9.47797C7.23818 9.66331 6.92984 9.65511 6.73854 9.47797C6.54556 9.29928 6.28831 9.18941 6.00617 9.18941C5.72403 9.18941 5.46673 9.29928 5.27379 9.47797C5.07364 9.66331 4.76529 9.65511 4.574 9.47797C4.35392 9.27415 4.05017 9.15987 3.72125 9.19601C3.16878 9.25676 2.75928 9.74023 2.75928 10.296V15.5989C2.75928 16.16 3.17656 16.6468 3.73512 16.7009C4.37764 16.7632 4.92387 16.2542 4.92387 15.6238V13.8636C4.92387 13.3025 5.34115 12.8157 5.89971 12.7616C6.54223 12.6993 7.08846 13.2083 7.08846 13.8387V15.5989C7.08846 16.16 7.50575 16.6468 8.06431 16.7009C8.70682 16.7632 9.25306 16.2542 9.25306 15.6238V13.8636C9.25306 13.3025 9.67034 12.8157 10.2289 12.7616C10.8714 12.6993 11.4177 13.2083 11.4177 13.8387V15.5989C11.4177 16.16 11.8349 16.6468 12.3935 16.7009C13.036 16.7632 13.5822 16.2542 13.5822 15.6238V13.8636C13.5822 13.3025 13.9995 12.8157 14.5581 12.7616C15.2006 12.6993 15.7468 13.2083 15.7468 13.8387V15.5989C15.7468 16.16 16.1641 16.6468 16.7227 16.7009C17.3652 16.7632 17.9114 16.2542 17.9114 15.6238V13.8636C17.9114 13.3025 18.3287 12.8157 18.8873 12.7616C19.5298 12.6993 20.076 13.2083 20.076 13.8387V15.5989C20.076 16.16 20.4933 16.6468 21.0519 16.7009C21.6944 16.7632 22.2406 16.2542 22.2406 15.6238V10.296C22.2406 9.74023 21.8311 9.25672 21.2787 9.19601V9.19601Z" fill="#F27182"/>
<path d="M22.1854 12.7615C21.6269 12.8157 21.2096 13.3024 21.2096 13.8636V15.6238C21.2096 16.032 20.9803 16.3892 20.6443 16.5734C20.767 16.6414 20.9042 16.6866 21.0517 16.7009C21.6942 16.7632 22.2404 16.2542 22.2404 15.6238V12.7577C22.2222 12.7586 22.2039 12.7598 22.1854 12.7615V12.7615Z" fill="#ED5469"/>
<path d="M13.5272 12.7616C12.9687 12.8157 12.5514 13.3024 12.5514 13.8636V15.6238C12.5514 16.0321 12.3221 16.3892 11.9861 16.5734C12.1088 16.6414 12.246 16.6866 12.3935 16.7009C13.036 16.7632 13.5822 16.2542 13.5822 15.6238V13.8636C13.5822 13.4507 13.8087 13.0787 14.1507 12.8891C13.9679 12.7888 13.7536 12.7396 13.5272 12.7616V12.7616Z" fill="#ED5469"/>
<path d="M17.8563 12.7616C17.2978 12.8157 16.8805 13.3024 16.8805 13.8636V15.6238C16.8805 16.0321 16.6512 16.3892 16.3152 16.5734C16.4379 16.6414 16.5751 16.6866 16.7226 16.7009C17.3651 16.7632 17.9113 16.2542 17.9113 15.6237V13.8636C17.9113 13.4506 18.1378 13.0786 18.4798 12.889C18.297 12.7888 18.0827 12.7396 17.8563 12.7616V12.7616Z" fill="#ED5469"/>
<path d="M9.19814 12.7616C8.63958 12.8157 8.22229 13.3024 8.22229 13.8636V15.6238C8.22229 16.0321 7.99303 16.3892 7.65698 16.5734C7.7797 16.6414 7.9169 16.6866 8.06437 16.7009C8.70689 16.7632 9.25312 16.2542 9.25312 15.6237V13.8636C9.25312 13.4506 9.47958 13.0786 9.82153 12.889C9.63876 12.7888 9.4245 12.7396 9.19814 12.7616V12.7616Z" fill="#ED5469"/>
<path d="M6.05759 10.296C6.05759 9.90467 6.26107 9.54997 6.57401 9.35267C6.40878 9.24955 6.21434 9.18941 6.00617 9.18941C5.72403 9.18941 5.46678 9.29928 5.27379 9.47797C5.07364 9.66326 4.76529 9.65511 4.574 9.47797C4.35392 9.27415 4.05017 9.15987 3.72125 9.19601C3.16878 9.25676 2.75928 9.74023 2.75928 10.296V15.5989C2.75928 16.16 3.17656 16.6468 3.73512 16.7009C4.37764 16.7632 4.92387 16.2542 4.92387 15.6238V13.8636C4.92387 13.3025 5.34115 12.8157 5.89971 12.7616C5.95315 12.7564 6.00579 12.7555 6.05764 12.758V10.296H6.05759Z" fill="#ED5469"/>
<path d="M13.8101 1.90498L12.7439 0.649578C12.616 0.498969 12.3836 0.498969 12.2557 0.649578L11.1896 1.90503C10.2414 3.02155 11.035 4.73656 12.4998 4.73656C13.9647 4.73656 14.7583 3.02155 13.8101 1.90498V1.90498Z" fill="#FEE17D"/>
<path d="M12.1694 1.90497L12.9897 0.93897L12.7439 0.649517C12.616 0.498908 12.3836 0.498908 12.2557 0.649517L11.1896 1.90497C10.2414 3.02153 11.035 4.73655 12.4998 4.73655C12.6733 4.73655 12.8369 4.7118 12.9897 4.66755C11.8517 4.33811 11.3335 2.88935 12.1694 1.90497V1.90497Z" fill="#FFCE65"/>
<path d="M13.2078 3.20693L12.6318 2.52874C12.5627 2.44737 12.4372 2.44737 12.3681 2.52874L11.7921 3.20693C11.2799 3.81012 11.7086 4.73656 12.5 4.73656C13.2913 4.73656 13.72 3.81012 13.2078 3.20693V3.20693Z" fill="#FFB640"/>
<path d="M12.772 3.20693L12.9899 2.95034L12.6319 2.52874C12.5628 2.44737 12.4372 2.44737 12.3681 2.52874L11.7921 3.20693C11.2799 3.81012 11.7086 4.73656 12.5 4.73656C12.6859 4.73656 12.8515 4.68495 12.9898 4.59884C12.5393 4.31852 12.3801 3.66837 12.772 3.20693V3.20693Z" fill="#FFA90F"/>
</g>
<defs>
<clipPath id="clip0_1_3016">
<rect width="24" height="24" fill="white" transform="translate(0.5 0.536621)"/>
</clipPath>
</defs>
</svg>
