<svg width="25" height="25" viewBox="0 0 25 25" fill="none" xmlns="http://www.w3.org/2000/svg">
<g clip-path="url(#clip0_1_2270)">
<path d="M12.5 6.05097C12.3 6.05097 12.1378 5.88883 12.1378 5.68882V4.51371C12.1378 4.31364 12.3 4.15155 12.5 4.15155C12.7 4.15155 12.8622 4.31369 12.8622 4.51371V5.68877C12.8622 5.88883 12.7 6.05097 12.5 6.05097Z" fill="#E8F9FC"/>
<path d="M11.7676 9.5745C11.9606 9.39581 12.2179 9.28593 12.5 9.28593C12.7821 9.28593 13.0394 9.39581 13.2324 9.5745C13.3027 9.63965 13.389 9.68175 13.4798 9.69998V6.35981C13.4798 5.89293 13.1013 5.51447 12.6344 5.51447H12.3655C11.8986 5.51447 11.5202 5.89293 11.5202 6.35981V9.70012C11.6097 9.68231 11.6957 9.64111 11.7676 9.5745V9.5745Z" fill="#00D2FC"/>
<path d="M12.5 6.35981C12.5 6.02006 12.7009 5.72793 12.9899 5.59359C12.8817 5.54329 12.7616 5.51447 12.6344 5.51447H12.3655C11.8986 5.51447 11.5202 5.89293 11.5202 6.35981V9.70012C11.6096 9.68236 11.6956 9.64115 11.7676 9.57454C11.9606 9.39586 12.2178 9.28598 12.5 9.28598V6.35981H12.5Z" fill="#00C2FB"/>
<path d="M3.16574 14.8235H21.8343V19.3789H3.16574V14.8235Z" fill="#FFB640"/>
<path d="M3.16574 14.8235H6.05769V19.3789H3.16574V14.8235Z" fill="#FFA90F"/>
<path d="M4.49432 12.3447H20.4057V15.0074H4.49432V12.3447Z" fill="#FEE17D"/>
<path d="M4.49432 12.3447H6.0577V15.0074H4.49432V12.3447Z" fill="#FFCE65"/>
<path d="M3.16574 19.2534V21.7093C3.16574 22.1095 3.49016 22.4822 3.89033 22.4822H21.1097C21.5099 22.4822 21.8343 22.1095 21.8343 21.7093V19.2534H3.16574Z" fill="#FEE17D"/>
<path d="M6.05769 19.2534H3.16574V21.7093C3.16574 22.1095 3.49016 22.4822 3.89033 22.4822H6.05769V19.2534Z" fill="#FFCE65"/>
<path d="M23.0563 22.4339H1.94377C1.81285 22.4339 1.70673 22.54 1.70673 22.6709C1.70673 23.7013 2.54199 24.5366 3.57235 24.5366H21.4278C22.4581 24.5366 23.2934 23.7013 23.2934 22.6709C23.2934 22.54 23.1872 22.4339 23.0563 22.4339Z" fill="#E8F9FC"/>
<path d="M5.52201 22.6709C5.52201 22.54 5.62813 22.4339 5.75906 22.4339H1.94376C1.81284 22.4339 1.70667 22.54 1.70667 22.6709C1.70667 23.7013 2.54193 24.5366 3.57229 24.5366H7.38759C6.35727 24.5366 5.52201 23.7013 5.52201 22.6709Z" fill="#D9E7EC"/>
<path d="M21.2787 9.19601C20.9498 9.15987 20.6461 9.27415 20.426 9.47797C20.2258 9.66331 19.9175 9.65506 19.7262 9.47797C19.5332 9.29928 19.2759 9.18941 18.9938 9.18941C18.7116 9.18941 18.4544 9.29928 18.2614 9.47797C18.0612 9.66331 17.7529 9.65511 17.5616 9.47797C17.3686 9.29928 17.1113 9.18941 16.8292 9.18941C16.5471 9.18941 16.2898 9.29928 16.0968 9.47797C15.8966 9.66331 15.5883 9.65511 15.397 9.47797C15.204 9.29928 14.9467 9.18941 14.6646 9.18941C14.3825 9.18941 14.1252 9.29928 13.9322 9.47797C13.732 9.66331 13.4237 9.65511 13.2324 9.47797C13.0394 9.29928 12.7821 9.18941 12.5 9.18941C12.2179 9.18941 11.9606 9.29928 11.7676 9.47797C11.5674 9.66331 11.2591 9.65511 11.0678 9.47797C10.8748 9.29928 10.6176 9.18941 10.3354 9.18941C10.0533 9.18941 9.79598 9.29928 9.60304 9.47797C9.40284 9.66331 9.09449 9.65511 8.9032 9.47797C8.71021 9.29928 8.45296 9.18941 8.17082 9.18941C7.88868 9.18941 7.63138 9.29928 7.43845 9.47797C7.23824 9.66331 6.9299 9.65511 6.7386 9.47797C6.54562 9.29928 6.28837 9.18941 6.00623 9.18941C5.72409 9.18941 5.46679 9.29928 5.27385 9.47797C5.0737 9.66331 4.76535 9.65511 4.57406 9.47797C4.35398 9.27415 4.05023 9.15987 3.72131 9.19601C3.16884 9.25676 2.75934 9.74023 2.75934 10.296V15.5989C2.75934 16.16 3.17662 16.6468 3.73518 16.7009C4.3777 16.7632 4.92393 16.2542 4.92393 15.6238V13.8636C4.92393 13.3025 5.34121 12.8157 5.89978 12.7616C6.54229 12.6993 7.08852 13.2083 7.08852 13.8387V15.5989C7.08852 16.16 7.50581 16.6468 8.06437 16.7009C8.70688 16.7632 9.25312 16.2542 9.25312 15.6238V13.8636C9.25312 13.3025 9.6704 12.8157 10.229 12.7616C10.8715 12.6993 11.4177 13.2083 11.4177 13.8387V15.5989C11.4177 16.16 11.835 16.6468 12.3936 16.7009C13.0361 16.7632 13.5823 16.2542 13.5823 15.6238V13.8636C13.5823 13.3025 13.9996 12.8157 14.5582 12.7616C15.2007 12.6993 15.7469 13.2083 15.7469 13.8387V15.5989C15.7469 16.16 16.1642 16.6468 16.7227 16.7009C17.3653 16.7632 17.9115 16.2542 17.9115 15.6238V13.8636C17.9115 13.3025 18.3288 12.8157 18.8873 12.7616C19.5299 12.6993 20.0761 13.2083 20.0761 13.8387V15.5989C20.0761 16.16 20.4934 16.6468 21.0519 16.7009C21.6944 16.7632 22.2407 16.2542 22.2407 15.6238V10.296C22.2407 9.74023 21.8312 9.25672 21.2787 9.19601V9.19601Z" fill="#F27182"/>
<path d="M22.1856 12.7615C21.6271 12.8157 21.2098 13.3024 21.2098 13.8636V15.6238C21.2098 16.032 20.9805 16.3892 20.6445 16.5734C20.7672 16.6414 20.9044 16.6866 21.0519 16.7009C21.6944 16.7632 22.2406 16.2542 22.2406 15.6238V12.7577C22.2224 12.7586 22.2041 12.7598 22.1856 12.7615V12.7615Z" fill="#ED5469"/>
<path d="M13.5273 12.7616C12.9687 12.8157 12.5515 13.3024 12.5515 13.8636V15.6238C12.5515 16.0321 12.3221 16.3892 11.9861 16.5734C12.1089 16.6414 12.2461 16.6866 12.3935 16.7009C13.0361 16.7632 13.5823 16.2542 13.5823 15.6238V13.8636C13.5823 13.4507 13.8087 13.0787 14.1507 12.8891C13.9679 12.7888 13.7537 12.7396 13.5273 12.7616V12.7616Z" fill="#ED5469"/>
<path d="M17.8565 12.7616C17.2979 12.8157 16.8807 13.3024 16.8807 13.8636V15.6238C16.8807 16.0321 16.6513 16.3892 16.3153 16.5734C16.4381 16.6414 16.5753 16.6866 16.7227 16.7009C17.3652 16.7632 17.9115 16.2542 17.9115 15.6237V13.8636C17.9115 13.4506 18.1379 13.0786 18.4799 12.889C18.2971 12.7888 18.0829 12.7396 17.8565 12.7616V12.7616Z" fill="#ED5469"/>
<path d="M9.19811 12.7616C8.63955 12.8157 8.22226 13.3024 8.22226 13.8636V15.6238C8.22226 16.0321 7.993 16.3892 7.65695 16.5734C7.77967 16.6414 7.91687 16.6866 8.06434 16.7009C8.70686 16.7632 9.25309 16.2542 9.25309 15.6237V13.8636C9.25309 13.4506 9.47955 13.0786 9.8215 12.889C9.63873 12.7888 9.42447 12.7396 9.19811 12.7616V12.7616Z" fill="#ED5469"/>
<path d="M6.05768 10.296C6.05768 9.90467 6.26117 9.54997 6.5741 9.35267C6.40887 9.24955 6.21443 9.18941 6.00626 9.18941C5.72412 9.18941 5.46687 9.29928 5.27388 9.47797C5.07373 9.66326 4.76538 9.65511 4.57409 9.47797C4.35401 9.27415 4.05026 9.15987 3.72134 9.19601C3.16887 9.25676 2.75937 9.74023 2.75937 10.296V15.5989C2.75937 16.16 3.17665 16.6468 3.73521 16.7009C4.37773 16.7632 4.92396 16.2542 4.92396 15.6238V13.8636C4.92396 13.3025 5.34124 12.8157 5.89981 12.7616C5.95324 12.7564 6.00588 12.7555 6.05773 12.758V10.296H6.05768Z" fill="#ED5469"/>
<path d="M13.8103 1.90498L12.7441 0.649578C12.6162 0.498969 12.3838 0.498969 12.2559 0.649578L11.1898 1.90503C10.2416 3.02155 11.0352 4.73656 12.5 4.73656C13.9649 4.73656 14.7585 3.02155 13.8103 1.90498V1.90498Z" fill="#FEE17D"/>
<path d="M12.1696 1.90497L12.9899 0.93897L12.7441 0.649517C12.6162 0.498908 12.3838 0.498908 12.2559 0.649517L11.1898 1.90497C10.2416 3.02153 11.0352 4.73655 12.5 4.73655C12.6735 4.73655 12.8371 4.7118 12.9899 4.66755C11.8519 4.33811 11.3337 2.88935 12.1696 1.90497V1.90497Z" fill="#FFCE65"/>
<path d="M13.2078 3.20693L12.6319 2.52874C12.5628 2.44737 12.4372 2.44737 12.3682 2.52874L11.7922 3.20693C11.28 3.81012 11.7087 4.73656 12.5 4.73656C13.2914 4.73656 13.72 3.81012 13.2078 3.20693V3.20693Z" fill="#FFB640"/>
<path d="M12.772 3.20693L12.9899 2.95034L12.6319 2.52874C12.5628 2.44737 12.4373 2.44737 12.3682 2.52874L11.7922 3.20693C11.28 3.81012 11.7087 4.73656 12.5 4.73656C12.686 4.73656 12.8515 4.68495 12.9899 4.59884C12.5393 4.31852 12.3802 3.66837 12.772 3.20693V3.20693Z" fill="#FFA90F"/>
</g>
<defs>
<clipPath id="clip0_1_2270">
<rect width="24" height="24" fill="white" transform="translate(0.5 0.536621)"/>
</clipPath>
</defs>
</svg>
