<svg width="16" height="17" viewBox="0 0 16 17" fill="none" xmlns="http://www.w3.org/2000/svg">
<path d="M8 13.3C7.55817 13.3 7.2 12.9418 7.2 12.5L7.2 7.7C7.2 7.25817 7.55817 6.9 8 6.9C8.44183 6.9 8.8 7.25817 8.8 7.7L8.8 12.5C8.8 12.9418 8.44183 13.3 8 13.3Z" fill="#B3B3B3"/>
<path d="M8 5.3C8.44183 5.3 8.8 4.94183 8.8 4.5C8.8 4.05817 8.44183 3.7 8 3.7C7.55817 3.7 7.2 4.05817 7.2 4.5C7.2 4.94183 7.55817 5.3 8 5.3Z" fill="#B3B3B3"/>
<path fill-rule="evenodd" clip-rule="evenodd" d="M8 16.5C12.4183 16.5 16 12.9183 16 8.5C16 4.08172 12.4183 0.499999 8 0.499999C3.58172 0.499999 8.47222e-07 4.08172 4.60964e-07 8.5C7.47055e-08 12.9183 3.58172 16.5 8 16.5ZM14.4 8.5C14.4 4.96538 11.5346 2.1 8 2.1C4.46538 2.1 1.6 4.96538 1.6 8.5C1.6 12.0346 4.46538 14.9 8 14.9C11.5346 14.9 14.4 12.0346 14.4 8.5Z" fill="#B3B3B3"/>
</svg>
