<svg width="16" height="16" viewBox="0 0 16 16" fill="none" xmlns="http://www.w3.org/2000/svg">
<path d="M8 12.8C7.55817 12.8 7.2 12.4418 7.2 12L7.2 7.2C7.2 6.75817 7.55817 6.4 8 6.4C8.44183 6.4 8.8 6.75817 8.8 7.2L8.8 12C8.8 12.4418 8.44183 12.8 8 12.8Z" fill="#B3B3B3"/>
<path d="M8 4.8C8.44183 4.8 8.8 4.44183 8.8 4C8.8 3.55817 8.44183 3.2 8 3.2C7.55817 3.2 7.2 3.55817 7.2 4C7.2 4.44183 7.55817 4.8 8 4.8Z" fill="#B3B3B3"/>
<path fill-rule="evenodd" clip-rule="evenodd" d="M8 16C12.4183 16 16 12.4183 16 8C16 3.58172 12.4183 -5.51543e-07 8 -9.37801e-07C3.58172 -1.32406e-06 8.47222e-07 3.58172 4.60964e-07 8C7.47055e-08 12.4183 3.58172 16 8 16ZM14.4 8C14.4 4.46538 11.5346 1.6 8 1.6C4.46538 1.6 1.6 4.46538 1.6 8C1.6 11.5346 4.46538 14.4 8 14.4C11.5346 14.4 14.4 11.5346 14.4 8Z" fill="#B3B3B3"/>
</svg>
