<svg width="54" height="25" viewBox="0 0 54 25" fill="none" xmlns="http://www.w3.org/2000/svg">
<path d="M12 2.53667C6.49 2.53667 2 7.02667 2 12.5367C2 18.0467 6.49 22.5367 12 22.5367C17.51 22.5367 22 18.0467 22 12.5367C22 7.02667 17.51 2.53667 12 2.53667ZM16.78 10.2367L11.11 15.9067C10.97 16.0467 10.78 16.1267 10.58 16.1267C10.38 16.1267 10.19 16.0467 10.05 15.9067L7.22 13.0767C6.93 12.7867 6.93 12.3067 7.22 12.0167C7.51 11.7267 7.99 11.7267 8.28 12.0167L10.58 14.3167L15.72 9.17667C16.01 8.88667 16.49 8.88667 16.78 9.17667C17.07 9.46667 17.07 9.93667 16.78 10.2367Z" fill="#4EDF9A"/>
<path d="M42 2.53667C36.49 2.53667 32 7.02667 32 12.5367C32 18.0467 36.49 22.5367 42 22.5367C47.51 22.5367 52 18.0467 52 12.5367C52 7.02667 47.51 2.53667 42 2.53667ZM45.36 14.8367C45.65 15.1267 45.65 15.6067 45.36 15.8967C45.21 16.0467 45.02 16.1167 44.83 16.1167C44.64 16.1167 44.45 16.0467 44.3 15.8967L42 13.5967L39.7 15.8967C39.55 16.0467 39.36 16.1167 39.17 16.1167C38.98 16.1167 38.79 16.0467 38.64 15.8967C38.35 15.6067 38.35 15.1267 38.64 14.8367L40.94 12.5367L38.64 10.2367C38.35 9.94667 38.35 9.46667 38.64 9.17667C38.93 8.88667 39.41 8.88667 39.7 9.17667L42 11.4767L44.3 9.17667C44.59 8.88667 45.07 8.88667 45.36 9.17667C45.65 9.46667 45.65 9.94667 45.36 10.2367L43.06 12.5367L45.36 14.8367Z" fill="#FE6F82"/>
</svg>
