<svg width="286" height="235" viewBox="0 0 286 235" fill="none" xmlns="http://www.w3.org/2000/svg">
<path opacity="0.2" d="M248.387 66.8149C286.964 131.842 259.178 231.743 194.169 270.331C129.16 308.92 30.685 271.861 -7.89235 206.834C-17.0548 191.363 -23.0799 174.238 -25.6234 156.437C-28.1669 138.637 -27.179 120.509 -22.716 103.09C-18.253 85.6717 -10.4024 69.3035 0.387058 54.9209C11.1765 40.5383 24.6934 28.4232 40.1655 19.268C104.912 -19.3202 209.809 1.83123 248.387 66.8149Z" fill="#DDD2F3"/>
<path opacity="0.47" d="M282.333 119.553C290.365 132.733 284.58 152.995 271.045 160.822C257.511 168.648 237.01 161.132 228.978 147.952C227.071 144.814 225.816 141.341 225.287 137.731C224.757 134.12 224.963 130.444 225.892 126.911C226.821 123.378 228.455 120.058 230.702 117.141C232.948 114.224 235.762 111.767 238.983 109.91C252.463 102.083 274.302 106.365 282.333 119.553Z" fill="#EDC483"/>
</svg>
