<svg width="82" height="81" viewBox="0 0 82 81" fill="none" xmlns="http://www.w3.org/2000/svg">
<path opacity="0.47" d="M77.0707 18.227C87.8671 35.9519 80.0908 63.2007 61.8971 73.726C43.7034 84.2513 16.1439 74.1432 5.34754 56.4183C2.78331 52.1986 1.09709 47.5276 0.38526 42.6723C-0.326574 37.817 -0.05008 32.8726 1.19894 28.1215C2.44797 23.3704 4.64504 18.9058 7.66462 14.9829C10.6842 11.0599 14.4671 7.7554 18.7972 5.25823C36.9175 -5.26703 66.2743 0.490246 77.0707 18.227Z" fill="#EDC483"/>
<path opacity="0.47" d="M33.6166 68.7389C35.8042 72.3747 34.2285 77.9643 30.542 80.1233C26.8555 82.2823 21.2712 80.2089 19.0836 76.573C18.564 75.7074 18.2223 74.7493 18.0781 73.7533C17.9338 72.7573 17.9899 71.7431 18.2429 70.7685C18.496 69.7939 18.9412 68.8781 19.5531 68.0734C20.1649 67.2687 20.9314 66.5909 21.8088 66.0786C25.4805 63.9196 31.4289 65.1006 33.6166 68.7389Z" fill="#E3707F"/>
</svg>
