<svg width="270" height="269" viewBox="0 0 270 269" fill="none" xmlns="http://www.w3.org/2000/svg">
<path opacity="0.25" d="M311.064 32.9546C352.538 102.984 322.666 210.57 252.776 252.126C182.885 293.683 77.0163 253.773 35.5424 183.744C25.6919 167.083 19.2145 148.641 16.48 129.471C13.7455 110.301 14.8076 90.7789 19.6056 72.0204C24.4037 53.2619 32.8438 35.6345 44.4434 20.1456C56.043 4.65658 70.5748 -8.39035 87.2086 -18.2498C156.817 -59.8063 269.59 -37.0279 311.064 32.9546Z" fill="#DDD2F3"/>
<path opacity="0.47" d="M79.8904 123.395C91.0817 142.257 83.0209 171.252 64.1616 182.452C45.3023 193.652 16.7346 182.896 5.54318 164.035C2.88513 159.545 1.13723 154.574 0.399355 149.408C-0.338522 144.241 -0.0519122 138.98 1.24281 133.924C2.53753 128.869 4.81498 124.118 7.94503 119.943C11.0751 115.769 14.9964 112.253 19.4849 109.595C38.2681 98.3953 68.699 104.522 79.8904 123.395Z" fill="#EDC483"/>
</svg>
