<svg width="24" height="23" viewBox="0 0 24 23" fill="none" xmlns="http://www.w3.org/2000/svg">
<path d="M14.2658 21.1479C14.2003 21.1479 14.1338 21.1398 14.0683 21.1217C13.6656 21.0138 13.428 20.598 13.5367 20.1963L18.5716 1.56682C18.6804 1.16302 19.0952 0.921286 19.4981 1.03505C19.9008 1.14292 20.1385 1.55871 20.0297 1.96048L14.9949 20.5899C14.9042 20.9262 14.599 21.1479 14.2658 21.1479V21.1479Z" fill="#E3707F"/>
<path d="M4.69928 21.1479C4.63382 21.1479 4.56744 21.1398 4.50198 21.1217C4.0991 21.0138 3.86143 20.598 3.97022 20.1963L9.00524 1.56682C9.11385 1.16302 9.52982 0.921286 9.9316 1.03505C10.3345 1.14292 10.572 1.55871 10.4634 1.96048L5.42834 20.5899C5.33762 20.9262 5.03265 21.1479 4.69928 21.1479Z" fill="#E3707F"/>
<path d="M20.3078 16.1128H1.67834C1.26144 16.1128 0.923096 15.7745 0.923096 15.3576C0.923096 14.9407 1.26144 14.6024 1.67834 14.6024H20.3078C20.7247 14.6024 21.063 14.9407 21.063 15.3576C21.063 15.7745 20.7247 16.1128 20.3078 16.1128Z" fill="#E3707F"/>
<path d="M22.3216 7.55352H3.69238C3.27548 7.55352 2.93713 7.21517 2.93713 6.79827C2.93713 6.38138 3.27548 6.04303 3.69238 6.04303H22.3216C22.7385 6.04303 23.0769 6.38138 23.0769 6.79827C23.0769 7.21517 22.7385 7.55352 22.3216 7.55352Z" fill="#E3707F"/>
</svg>
