<svg width="20" height="20" viewBox="0 0 20 20" fill="none" xmlns="http://www.w3.org/2000/svg">
<path d="M9.35366 3.02597C9.36814 2.84747 9.37296 2.66897 9.39708 2.49047C9.44533 2.13347 9.64313 1.87778 9.96636 1.7234C10.2462 1.58832 10.69 1.7041 10.9312 1.96944C11.1339 2.19136 11.1917 2.46152 11.2062 2.74616C11.211 2.84265 11.2062 2.93914 11.2062 3.04527C11.3992 3.04527 11.5777 3.04527 11.761 3.04527C12.475 3.04527 13.189 3.04045 13.903 3.04045C14.1587 3.04045 14.3999 3.08869 14.5929 3.27202C14.8727 3.53736 14.9499 3.93295 14.8052 4.31408C14.6846 4.63731 14.3903 4.83511 13.9995 4.83993C13.2228 4.84476 12.4509 4.84476 11.6742 4.84476C11.5295 4.84476 11.3847 4.84476 11.2352 4.84476C11.2352 6.25347 11.2352 7.65254 11.2352 9.06125C11.3944 9.06607 11.5487 9.07572 11.7031 9.08055C13.7052 9.16256 15.0802 10.5086 15.4517 12.1054C15.7604 13.4369 15.4324 14.6141 14.5543 15.6561C13.9802 16.3316 13.2469 16.6789 12.3882 16.8188C12.0264 16.8767 11.6645 16.9491 11.2979 17.007C11.2207 17.0214 11.2014 17.0504 11.2014 17.1228C11.1966 17.2675 11.1869 17.4122 11.1628 17.5521C11.1001 17.8995 10.8878 18.131 10.5742 18.2806C10.2944 18.4109 9.86987 18.2903 9.63348 18.0249C9.4598 17.8319 9.38744 17.5955 9.37296 17.3399C9.36331 17.2144 9.37296 17.0938 9.37296 16.9539C9.31025 16.9539 9.26683 16.9539 9.22341 16.9539C8.35985 16.9539 7.49629 16.9539 6.63273 16.9539C6.16476 16.9539 5.83671 16.7175 5.72575 16.2978C5.59066 15.7912 5.856 15.1641 6.57483 15.1544C7.44804 15.1448 8.31643 15.1496 9.18964 15.1496C9.23788 15.1496 9.28612 15.1496 9.33919 15.1496C9.33919 13.7409 9.33919 12.337 9.33919 10.9331C9.10762 10.9186 8.87605 10.9138 8.64448 10.8897C7.25024 10.7546 6.19853 10.0792 5.49418 8.8731C5.07446 8.14944 4.92973 7.36307 5.03104 6.53328C5.21436 5.03291 6.02486 3.98602 7.3805 3.35403C7.93048 3.09834 8.52388 3.02115 9.12692 3.0308C9.18964 3.0308 9.25718 3.0308 9.31989 3.0308C9.33437 3.03562 9.33919 3.0308 9.35366 3.02597ZM9.34402 4.85923C8.34055 4.80134 7.559 5.10527 7.09586 5.94954C6.63755 6.78415 6.72439 7.59947 7.34673 8.36172C7.85811 8.98888 8.66378 9.15291 9.34402 9.06125C9.34402 7.66218 9.34402 6.26312 9.34402 4.85923ZM11.2303 15.1255C11.8527 15.2413 12.7983 15.0145 13.3289 14.286C13.8355 13.5913 13.8741 12.6313 13.4351 11.9221C12.9333 11.1116 11.9974 10.7932 11.2303 10.9331C11.2303 12.3273 11.2303 13.7216 11.2303 15.1255Z" fill="#4D4D4D"/>
</svg>
