<svg width="20" height="20" viewBox="0 0 20 20" fill="none" xmlns="http://www.w3.org/2000/svg">
<path fill-rule="evenodd" clip-rule="evenodd" d="M8.33335 5.00002C8.33335 6.84097 6.84097 8.33335 5.00002 8.33335C3.15907 8.33335 1.66669 6.84097 1.66669 5.00002C1.66669 3.15907 3.15907 1.66669 5.00002 1.66669C6.84097 1.66669 8.33335 3.15907 8.33335 5.00002ZM6.66669 5.00002C6.66669 5.9205 5.9205 6.66669 5.00002 6.66669C4.07955 6.66669 3.33335 5.9205 3.33335 5.00002C3.33335 4.07955 4.07955 3.33335 5.00002 3.33335C5.9205 3.33335 6.66669 4.07955 6.66669 5.00002Z" fill="#4D4D4D"/>
<path fill-rule="evenodd" clip-rule="evenodd" d="M18.3334 15C18.3334 16.841 16.841 18.3334 15 18.3334C13.1591 18.3334 11.6667 16.841 11.6667 15C11.6667 13.1591 13.1591 11.6667 15 11.6667C16.841 11.6667 18.3334 13.1591 18.3334 15ZM16.6667 15C16.6667 15.9205 15.9205 16.6667 15 16.6667C14.0795 16.6667 13.3334 15.9205 13.3334 15C13.3334 14.0795 14.0795 13.3334 15 13.3334C15.9205 13.3334 16.6667 14.0795 16.6667 15Z" fill="#4D4D4D"/>
<path fill-rule="evenodd" clip-rule="evenodd" d="M16.345 1.8422C16.7083 2.12476 16.7737 2.64833 16.4911 3.01161L4.82448 18.0116C4.54192 18.3749 4.01836 18.4403 3.65507 18.1578C3.29178 17.8752 3.22633 17.3517 3.50889 16.9884L15.1756 1.98838C15.4581 1.62509 15.9817 1.55965 16.345 1.8422Z" fill="#4D4D4D"/>
</svg>
