<svg width="20" height="20" viewBox="0 0 20 20" fill="none" xmlns="http://www.w3.org/2000/svg">
<path fill-rule="evenodd" clip-rule="evenodd" d="M8.33329 5.00002C8.33329 6.84097 6.84091 8.33335 4.99996 8.33335C3.15901 8.33335 1.66663 6.84097 1.66663 5.00002C1.66663 3.15907 3.15901 1.66669 4.99996 1.66669C6.84091 1.66669 8.33329 3.15907 8.33329 5.00002ZM6.66663 5.00002C6.66663 5.9205 5.92043 6.66669 4.99996 6.66669C4.07948 6.66669 3.33329 5.9205 3.33329 5.00002C3.33329 4.07955 4.07948 3.33335 4.99996 3.33335C5.92043 3.33335 6.66663 4.07955 6.66663 5.00002Z" fill="#4D4D4D"/>
<path fill-rule="evenodd" clip-rule="evenodd" d="M18.3333 15C18.3333 16.841 16.8409 18.3334 15 18.3334C13.159 18.3334 11.6666 16.841 11.6666 15C11.6666 13.1591 13.159 11.6667 15 11.6667C16.8409 11.6667 18.3333 13.1591 18.3333 15ZM16.6666 15C16.6666 15.9205 15.9204 16.6667 15 16.6667C14.0795 16.6667 13.3333 15.9205 13.3333 15C13.3333 14.0795 14.0795 13.3334 15 13.3334C15.9204 13.3334 16.6666 14.0795 16.6666 15Z" fill="#4D4D4D"/>
<path fill-rule="evenodd" clip-rule="evenodd" d="M16.345 1.8422C16.7083 2.12476 16.7738 2.64833 16.4912 3.01161L4.82454 18.0116C4.54198 18.3749 4.01842 18.4403 3.65513 18.1578C3.29184 17.8752 3.22639 17.3517 3.50895 16.9884L15.1756 1.98838C15.4582 1.62509 15.9817 1.55965 16.345 1.8422Z" fill="#4D4D4D"/>
</svg>
