<svg width="20" height="20" viewBox="0 0 20 20" fill="none" xmlns="http://www.w3.org/2000/svg">
<path fill-rule="evenodd" clip-rule="evenodd" d="M8.33332 5.00002C8.33332 6.84097 6.84094 8.33335 4.99999 8.33335C3.15904 8.33335 1.66666 6.84097 1.66666 5.00002C1.66666 3.15907 3.15904 1.66669 4.99999 1.66669C6.84094 1.66669 8.33332 3.15907 8.33332 5.00002ZM6.66666 5.00002C6.66666 5.9205 5.92046 6.66669 4.99999 6.66669C4.07952 6.66669 3.33332 5.9205 3.33332 5.00002C3.33332 4.07955 4.07952 3.33335 4.99999 3.33335C5.92046 3.33335 6.66666 4.07955 6.66666 5.00002Z" fill="#4D4D4D"/>
<path fill-rule="evenodd" clip-rule="evenodd" d="M18.3333 15C18.3333 16.841 16.8409 18.3334 15 18.3334C13.159 18.3334 11.6667 16.841 11.6667 15C11.6667 13.1591 13.159 11.6667 15 11.6667C16.8409 11.6667 18.3333 13.1591 18.3333 15ZM16.6667 15C16.6667 15.9205 15.9205 16.6667 15 16.6667C14.0795 16.6667 13.3333 15.9205 13.3333 15C13.3333 14.0795 14.0795 13.3334 15 13.3334C15.9205 13.3334 16.6667 14.0795 16.6667 15Z" fill="#4D4D4D"/>
<path fill-rule="evenodd" clip-rule="evenodd" d="M16.345 1.8422C16.7083 2.12476 16.7737 2.64833 16.4912 3.01161L4.82451 18.0116C4.54195 18.3749 4.01839 18.4403 3.6551 18.1578C3.29181 17.8752 3.22636 17.3517 3.50892 16.9884L15.1756 1.98838C15.4581 1.62509 15.9817 1.55965 16.345 1.8422Z" fill="#4D4D4D"/>
</svg>
