<svg width="20" height="20" viewBox="0 0 20 20" fill="none" xmlns="http://www.w3.org/2000/svg">
<path fill-rule="evenodd" clip-rule="evenodd" d="M8.33342 5.00002C8.33342 6.84097 6.84103 8.33335 5.00008 8.33335C3.15913 8.33335 1.66675 6.84097 1.66675 5.00002C1.66675 3.15907 3.15913 1.66669 5.00008 1.66669C6.84103 1.66669 8.33342 3.15907 8.33342 5.00002ZM6.66675 5.00002C6.66675 5.9205 5.92056 6.66669 5.00008 6.66669C4.07961 6.66669 3.33341 5.9205 3.33341 5.00002C3.33341 4.07955 4.07961 3.33335 5.00008 3.33335C5.92056 3.33335 6.66675 4.07955 6.66675 5.00002Z" fill="#4D4D4D"/>
<path fill-rule="evenodd" clip-rule="evenodd" d="M18.3334 15C18.3334 16.841 16.841 18.3334 15.0001 18.3334C13.1591 18.3334 11.6667 16.841 11.6667 15C11.6667 13.1591 13.1591 11.6667 15.0001 11.6667C16.841 11.6667 18.3334 13.1591 18.3334 15ZM16.6667 15C16.6667 15.9205 15.9206 16.6667 15.0001 16.6667C14.0796 16.6667 13.3334 15.9205 13.3334 15C13.3334 14.0795 14.0796 13.3334 15.0001 13.3334C15.9206 13.3334 16.6667 14.0795 16.6667 15Z" fill="#4D4D4D"/>
<path fill-rule="evenodd" clip-rule="evenodd" d="M16.3449 1.8422C16.7082 2.12476 16.7736 2.64833 16.4911 3.01161L4.82442 18.0116C4.54186 18.3749 4.0183 18.4403 3.65501 18.1578C3.29172 17.8752 3.22627 17.3517 3.50883 16.9884L15.1755 1.98838C15.4581 1.62509 15.9816 1.55965 16.3449 1.8422Z" fill="#4D4D4D"/>
</svg>
