<svg width="36" height="36" viewBox="0 0 36 36" fill="none" xmlns="http://www.w3.org/2000/svg">
<path d="M18 33.8203C26.7373 33.8203 33.8203 26.7373 33.8203 18C33.8203 9.26268 26.7373 2.17969 18 2.17969C9.26268 2.17969 2.17969 9.26268 2.17969 18C2.17969 26.7373 9.26268 33.8203 18 33.8203Z" fill="url(#paint0_linear_1_2793)"/>
<path d="M21.3609 9.21094H14.6461C11.6508 9.21094 9.21796 11.6437 9.21796 14.6391V21.3539C9.21796 24.3492 11.6508 26.782 14.6461 26.782H21.3609C24.3562 26.782 26.789 24.3492 26.789 21.3539V14.6391C26.789 11.6437 24.3562 9.21094 21.3609 9.21094ZM24.8273 21.3609C24.8273 23.2734 23.2734 24.8344 21.3539 24.8344H14.639C12.7265 24.8344 11.1656 23.2805 11.1656 21.3609V14.6461C11.1656 12.7336 12.7195 11.1727 14.639 11.1727H21.3539C23.2664 11.1727 24.8273 12.7266 24.8273 14.6461V21.3609Z" fill="white"/>
<path d="M18 13.507C15.525 13.507 13.507 15.525 13.507 18C13.507 20.475 15.525 22.493 18 22.493C20.475 22.493 22.493 20.475 22.493 18C22.493 15.525 20.475 13.507 18 13.507V13.507ZM18 20.7281C16.4953 20.7281 15.2719 19.5047 15.2719 18C15.2719 16.4953 16.4953 15.2719 18 15.2719C19.5047 15.2719 20.7281 16.4953 20.7281 18C20.7281 19.5047 19.5047 20.7281 18 20.7281Z" fill="white"/>
<path d="M22.8352 13.9996C23.2491 13.9325 23.5303 13.5425 23.4632 13.1286C23.3961 12.7146 23.0061 12.4335 22.5922 12.5006C22.1782 12.5677 21.897 12.9576 21.9642 13.3716C22.0313 13.7855 22.4212 14.0667 22.8352 13.9996Z" fill="white"/>
<defs>
<linearGradient id="paint0_linear_1_2793" x1="5.95399" y1="30.046" x2="28.4364" y2="7.56359" gradientUnits="userSpaceOnUse">
<stop stop-color="#FEE411"/>
<stop offset="0.0518459" stop-color="#FEDB16"/>
<stop offset="0.1381" stop-color="#FEC125"/>
<stop offset="0.2481" stop-color="#FE983D"/>
<stop offset="0.3762" stop-color="#FE5F5E"/>
<stop offset="0.5" stop-color="#FE2181"/>
<stop offset="1" stop-color="#9000DC"/>
</linearGradient>
</defs>
</svg>
