<svg width="24" height="24" viewBox="0 0 24 24" fill="none" xmlns="http://www.w3.org/2000/svg">
<path d="M12 22.5469C17.8249 22.5469 22.5469 17.8249 22.5469 12.0001C22.5469 6.17518 17.8249 1.45319 12 1.45319C6.17512 1.45319 1.45312 6.17518 1.45312 12.0001C1.45312 17.8249 6.17512 22.5469 12 22.5469Z" fill="url(#paint0_linear_1_2557)"/>
<path d="M14.2406 6.14069H9.76406C7.76718 6.14069 6.14531 7.76256 6.14531 9.75944V14.236C6.14531 16.2329 7.76718 17.8547 9.76406 17.8547H14.2406C16.2375 17.8547 17.8594 16.2329 17.8594 14.236V9.75944C17.8594 7.76256 16.2375 6.14069 14.2406 6.14069ZM16.5516 14.2407C16.5516 15.5157 15.5156 16.5563 14.2359 16.5563H9.75937C8.48437 16.5563 7.44375 15.5204 7.44375 14.2407V9.76412C7.44375 8.48912 8.47968 7.4485 9.75937 7.4485H14.2359C15.5109 7.4485 16.5516 8.48444 16.5516 9.76412V14.2407Z" fill="white"/>
<path d="M12 9.00476C10.35 9.00476 9.00468 10.3501 9.00468 12.0001C9.00468 13.6501 10.35 14.9954 12 14.9954C13.65 14.9954 14.9953 13.6501 14.9953 12.0001C14.9953 10.3501 13.65 9.00476 12 9.00476V9.00476ZM12 13.8188C10.9969 13.8188 10.1812 13.0032 10.1812 12.0001C10.1812 10.9969 10.9969 10.1813 12 10.1813C13.0031 10.1813 13.8187 10.9969 13.8187 12.0001C13.8187 13.0032 13.0031 13.8188 12 13.8188Z" fill="white"/>
<path d="M15.2234 9.33313C15.4994 9.2884 15.6868 9.02842 15.6421 8.75246C15.5974 8.4765 15.3374 8.28906 15.0614 8.33379C14.7855 8.37853 14.598 8.6385 14.6428 8.91446C14.6875 9.19042 14.9475 9.37787 15.2234 9.33313Z" fill="white"/>
<defs>
<linearGradient id="paint0_linear_1_2557" x1="3.96933" y1="20.0307" x2="18.9576" y2="5.04245" gradientUnits="userSpaceOnUse">
<stop stop-color="#FEE411"/>
<stop offset="0.0518459" stop-color="#FEDB16"/>
<stop offset="0.1381" stop-color="#FEC125"/>
<stop offset="0.2481" stop-color="#FE983D"/>
<stop offset="0.3762" stop-color="#FE5F5E"/>
<stop offset="0.5" stop-color="#FE2181"/>
<stop offset="1" stop-color="#9000DC"/>
</linearGradient>
</defs>
</svg>
