<svg width="16" height="17" viewBox="0 0 16 17" fill="none" xmlns="http://www.w3.org/2000/svg">
<g clip-path="url(#clip0_1_2179)">
<path d="M15.9974 8.50003C15.9974 4.0817 12.4163 0.500031 7.99878 0.500031C3.58118 0.500031 0 4.0817 0 8.50003C0 12.9184 3.58118 16.5 7.99878 16.5C12.4163 16.5 15.9974 12.9184 15.9974 8.50003Z" fill="#F36986"/>
<path d="M10.7648 0.991486C12.8934 2.42899 14.293 4.86417 14.293 7.62625C14.293 12.0446 10.7118 15.6263 6.29419 15.6263C5.3219 15.6263 4.39014 15.4527 3.5282 15.1348C4.80444 15.9967 6.3429 16.5 7.99878 16.5C12.4163 16.5 15.9974 12.9184 15.9974 8.50003C15.9974 5.05423 13.8192 2.11746 10.7648 0.991486V0.991486Z" fill="#FC476E"/>
<path d="M11.6163 6.01297L11.6107 6.00735C10.6962 5.0889 9.20923 5.08878 8.29456 6.00711L8.01929 6.28336L7.72839 5.99136C6.81213 5.07132 5.32275 5.07132 4.40649 5.99136C3.48804 6.91336 3.48804 8.40457 4.40649 9.32657L7.59167 12.5246C7.82764 12.7614 8.21118 12.7614 8.44702 12.5246L11.6163 9.34268C12.5321 8.42313 12.5321 6.9324 11.6163 6.01297V6.01297Z" fill="#FFD2E3"/>
<path d="M11.6163 6.01297L11.6107 6.00736C11.1061 5.50064 10.4272 5.27396 9.76636 5.32645C10.6221 6.24966 10.6027 7.69461 9.70728 8.59366L6.69177 11.6211L7.59167 12.5246C7.82764 12.7615 8.21118 12.7615 8.44702 12.5246L11.6163 9.34268C12.5321 8.42313 12.5321 6.9324 11.6163 6.01297V6.01297Z" fill="#FFBBD7"/>
</g>
<defs>
<clipPath id="clip0_1_2179">
<rect width="16" height="16" fill="white" transform="translate(0 0.500031)"/>
</clipPath>
</defs>
</svg>
