<svg width="24" height="24" viewBox="0 0 24 24" fill="none" xmlns="http://www.w3.org/2000/svg">
<g clip-path="url(#clip0_1_2209)">
<path d="M12 23.0768C18.1176 23.0768 23.0769 18.1175 23.0769 11.9998C23.0769 5.88222 18.1176 0.922913 12 0.922913C5.8824 0.922913 0.923096 5.88222 0.923096 11.9998C0.923096 18.1175 5.8824 23.0768 12 23.0768Z" fill="#007AB9"/>
<path d="M18.6183 12.8912V17.4579H15.9706V13.1972C15.9706 12.1274 15.5884 11.3968 14.6297 11.3968C13.8981 11.3968 13.4635 11.8887 13.2716 12.3649C13.2019 12.5351 13.1839 12.7715 13.1839 13.0102V17.4577H10.536C10.536 17.4577 10.5716 10.2415 10.536 9.4945H13.1841V10.623C13.1788 10.6319 13.1713 10.6405 13.1666 10.649H13.1841V10.623C13.536 10.0815 14.1635 9.30751 15.5704 9.30751C17.3124 9.30751 18.6183 10.4457 18.6183 12.8912ZM7.76612 5.65594C6.86039 5.65594 6.26782 6.25049 6.26782 7.03163C6.26782 7.79618 6.84321 8.4079 7.73137 8.4079H7.74855C8.67205 8.4079 9.24626 7.79618 9.24626 7.03163C9.22868 6.25049 8.67205 5.65594 7.76612 5.65594ZM6.4252 17.4579H9.0721V9.4945H6.4252V17.4579Z" fill="#F1F2F2"/>
</g>
<defs>
<clipPath id="clip0_1_2209">
<rect width="24" height="24" fill="white"/>
</clipPath>
</defs>
</svg>
