<svg width="36" height="36" viewBox="0 0 36 36" fill="none" xmlns="http://www.w3.org/2000/svg">
<path d="M18 34.615C27.1765 34.615 34.6154 27.1761 34.6154 17.9997C34.6154 8.82324 27.1765 1.38428 18 1.38428C8.82361 1.38428 1.38464 8.82324 1.38464 17.9997C1.38464 27.1761 8.82361 34.615 18 34.615Z" fill="#007AB9"/>
<path d="M27.9275 19.3366V26.1868H23.956V19.7957C23.956 18.191 23.3826 17.0951 21.9446 17.0951C20.8472 17.0951 20.1953 17.8329 19.9074 18.5473C19.8029 18.8026 19.7759 19.1571 19.7759 19.5152V26.1865H15.8041C15.8041 26.1865 15.8574 15.3621 15.8041 14.2417H19.7762V15.9344C19.7682 15.9477 19.757 15.9607 19.7498 15.9735H19.7762V15.9344C20.304 15.1222 21.2453 13.9612 23.3556 13.9612C25.9685 13.9612 27.9275 15.6684 27.9275 19.3366ZM11.6492 8.48383C10.2906 8.48383 9.40173 9.37564 9.40173 10.5473C9.40173 11.6942 10.2648 12.6118 11.5971 12.6118H11.6228C13.0081 12.6118 13.8694 11.6942 13.8694 10.5473C13.843 9.37564 13.0081 8.48383 11.6492 8.48383ZM9.63779 26.1868H13.6082V14.2417H9.63779V26.1868Z" fill="#F1F2F2"/>
</svg>
