<svg width="16" height="16" viewBox="0 0 16 16" fill="none" xmlns="http://www.w3.org/2000/svg">
<path fill-rule="evenodd" clip-rule="evenodd" d="M11.1304 10.2067L14.6667 13.743L13.743 14.6667L10.2068 11.1304L11.1304 10.2067Z" fill="#B6B6B6"/>
<path fill-rule="evenodd" clip-rule="evenodd" d="M7.2116 2.63961C4.68657 2.63961 2.63962 4.68656 2.63962 7.21159C2.63962 9.73662 4.68657 11.7836 7.2116 11.7836C9.73663 11.7836 11.7836 9.73662 11.7836 7.21159C11.7836 4.68656 9.73663 2.63961 7.2116 2.63961ZM1.33334 7.21159C1.33334 3.96512 3.96513 1.33333 7.2116 1.33333C10.4581 1.33333 13.0899 3.96512 13.0899 7.21159C13.0899 10.4581 10.4581 13.0898 7.2116 13.0898C3.96513 13.0898 1.33334 10.4581 1.33334 7.21159Z" fill="#B6B6B6"/>
</svg>
