<svg width="16" height="16" viewBox="0 0 16 16" fill="none" xmlns="http://www.w3.org/2000/svg">
<path fill-rule="evenodd" clip-rule="evenodd" d="M11.1303 10.2067L14.6666 13.743L13.7429 14.6667L10.2067 11.1304L11.1303 10.2067Z" fill="#B6B6B6"/>
<path fill-rule="evenodd" clip-rule="evenodd" d="M7.21151 2.63961C4.68648 2.63961 2.63953 4.68655 2.63953 7.21159C2.63953 9.73662 4.68648 11.7836 7.21151 11.7836C9.73654 11.7836 11.7835 9.73662 11.7835 7.21159C11.7835 4.68655 9.73654 2.63961 7.21151 2.63961ZM1.33325 7.21159C1.33325 3.96511 3.96504 1.33333 7.21151 1.33333C10.458 1.33333 13.0898 3.96511 13.0898 7.21159C13.0898 10.4581 10.458 13.0898 7.21151 13.0898C3.96504 13.0898 1.33325 10.4581 1.33325 7.21159Z" fill="#B6B6B6"/>
</svg>
