<svg width="16" height="16" viewBox="0 0 16 16" fill="none" xmlns="http://www.w3.org/2000/svg">
<path fill-rule="evenodd" clip-rule="evenodd" d="M11.1305 10.2067L14.6667 13.743L13.743 14.6667L10.2068 11.1304L11.1305 10.2067Z" fill="#B6B6B6"/>
<path fill-rule="evenodd" clip-rule="evenodd" d="M7.21163 2.63961C4.6866 2.63961 2.63965 4.68655 2.63965 7.21159C2.63965 9.73662 4.6866 11.7836 7.21163 11.7836C9.73667 11.7836 11.7836 9.73662 11.7836 7.21159C11.7836 4.68655 9.73667 2.63961 7.21163 2.63961ZM1.33337 7.21159C1.33337 3.96511 3.96516 1.33333 7.21163 1.33333C10.4581 1.33333 13.0899 3.96511 13.0899 7.21159C13.0899 10.4581 10.4581 13.0898 7.21163 13.0898C3.96516 13.0898 1.33337 10.4581 1.33337 7.21159Z" fill="#B6B6B6"/>
</svg>
