<svg width="24" height="25" viewBox="0 0 24 25" fill="none" xmlns="http://www.w3.org/2000/svg">
<path d="M12 2.53667C6.49 2.53667 2 7.02667 2 12.5367C2 18.0467 6.49 22.5367 12 22.5367C17.51 22.5367 22 18.0467 22 12.5367C22 7.02667 17.51 2.53667 12 2.53667ZM16.78 10.2367L11.11 15.9067C10.97 16.0467 10.78 16.1267 10.58 16.1267C10.38 16.1267 10.19 16.0467 10.05 15.9067L7.22 13.0767C6.93 12.7867 6.93 12.3067 7.22 12.0167C7.51 11.7267 7.99 11.7267 8.28 12.0167L10.58 14.3167L15.72 9.17667C16.01 8.88667 16.49 8.88667 16.78 9.17667C17.07 9.46667 17.07 9.93667 16.78 10.2367Z" fill="#4EDF9A"/>
</svg>
