<svg width="24" height="25" viewBox="0 0 24 25" fill="none" xmlns="http://www.w3.org/2000/svg">
<path d="M12 2.53667C6.49 2.53667 2 7.02667 2 12.5367C2 18.0467 6.49 22.5367 12 22.5367C17.51 22.5367 22 18.0467 22 12.5367C22 7.02667 17.51 2.53667 12 2.53667ZM15.36 14.8367C15.65 15.1267 15.65 15.6067 15.36 15.8967C15.21 16.0467 15.02 16.1167 14.83 16.1167C14.64 16.1167 14.45 16.0467 14.3 15.8967L12 13.5967L9.7 15.8967C9.55 16.0467 9.36 16.1167 9.17 16.1167C8.98 16.1167 8.79 16.0467 8.64 15.8967C8.35 15.6067 8.35 15.1267 8.64 14.8367L10.94 12.5367L8.64 10.2367C8.35 9.94667 8.35 9.46667 8.64 9.17667C8.93 8.88667 9.41 8.88667 9.7 9.17667L12 11.4767L14.3 9.17667C14.59 8.88667 15.07 8.88667 15.36 9.17667C15.65 9.46667 15.65 9.94667 15.36 10.2367L13.06 12.5367L15.36 14.8367Z" fill="#FE6F82"/>
</svg>
